{
  "accessors": [
    {
      "bufferView": 2,
      "componentType": 5126,
      "count": 2398,
      "max": [
        2.9400279521942139,
        8.3972415924072266,
        2.9376945495605469
      ],
      "min": [
        -2.9339489936828613,
        -2.5097188949584961,
        -2.9409418106079102
      ],
      "type": "VEC3"
    },
    {
      "bufferView": 2,
      "byteOffset": 28776,
      "componentType": 5126,
      "count": 2398,
      "max": [
        0.99932241439819336,
        0.99954259395599365,
        0.999889075756073
      ],
      "min": [
        -0.99932014942169189,
        -0.99952816963195801,
        -0.99989521503448486
      ],
      "type": "VEC3"
    },
    {
      "bufferView": 1,
      "componentType": 5126,
      "count": 2398,
      "max": [
        2.7854084968566895,
        4.8385162353515625
      ],
      "min": [
        -1.7968628406524658,
        -5.986851692199707
      ],
      "type": "VEC2"
    },
    {
      "bufferView": 0,
      "componentType": 5125,
      "count": 10776,
      "max": [
        2397
      ],
      "min": [
        0
      ],
      "type": "SCALAR"
    },
    {
      "bufferView": 2,
      "byteOffset": 57552,
      "componentType": 5126,
      "count": 6099,
      "max": [
        4.2032747268676758,
        4.6788849830627441,
        3.9449179172515869
      ],
      "min": [
        -4.190854549407959,
        -4.8299674987792969,
        -3.9501352310180664
      ],
      "type": "VEC3"
    },
    {
      "bufferView": 2,
      "byteOffset": 130740,
      "componentType": 5126,
      "count": 6099,
      "max": [
        0.99880921840667725,
        0.99954605102539062,
        0.99989497661590576
      ],
      "min": [
        -0.99944829940795898,
        -0.99989783763885498,
        -0.99828743934631348
      ],
      "type": "VEC3"
    },
    {
      "bufferView": 3,
      "componentType": 5126,
      "count": 6099,
      "max": [
        0.99946033954620361,
        0.99999368190765381,
        0.9999164342880249,
        1
      ],
      "min": [
        -0.99845284223556519,
        -0.99956661462783813,
        -0.99997794628143311,
        -1
      ],
      "type": "VEC4"
    },
    {
      "bufferView": 1,
      "byteOffset": 19184,
      "componentType": 5126,
      "count": 6099,
      "max": [
        0.98914986848831177,
        0.97242558002471924
      ],
      "min": [
        0.012389129959046841,
        0.014803647994995117
      ],
      "type": "VEC2"
    },
    {
      "bufferView": 1,
      "byteOffset": 67976,
      "componentType": 5126,
      "count": 6099,
      "max": [
        0.98914986848831177,
        0.97242558002471924
      ],
      "min": [
        0.012389129959046841,
        0.014803647994995117
      ],
      "type": "VEC2"
    },
    {
      "bufferView": 1,
      "byteOffset": 116768,
      "componentType": 5126,
      "count": 6099,
      "max": [
        0.98914986848831177,
        0.97242558002471924
      ],
      "min": [
        0.012389129959046841,
        0.014803647994995117
      ],
      "type": "VEC2"
    },
    {
      "bufferView": 1,
      "byteOffset": 165560,
      "componentType": 5126,
      "count": 6099,
      "max": [
        0.98914986848831177,
        0.97242558002471924
      ],
      "min": [
        0.012389129959046841,
        0.014803647994995117
      ],
      "type": "VEC2"
    },
    {
      "bufferView": 2,
      "byteOffset": 203928,
      "componentType": 5126,
      "count": 6099,
      "max": [
        0.14417099952697754,
        0.17465829849243164,
        0.040680944919586182
      ],
      "min": [
        -0.13246989250183105,
        -0.63564801216125488,
        -0.034049153327941895
      ],
      "type": "VEC3"
    },
    {
      "bufferView": 2,
      "byteOffset": 277116,
      "componentType": 5126,
      "count": 6099,
      "max": [
        0.44202339649200439,
        0.32146772742271423,
        0.32333537936210632
      ],
      "min": [
        -0.45270365476608276,
        -0.346314936876297,
        -0.37479734420776367
      ],
      "type": "VEC3"
    },
    {
      "bufferView": 2,
      "byteOffset": 350304,
      "componentType": 5126,
      "count": 6099,
      "max": [
        0,
        0.37089323997497559,
        0
      ],
      "min": [
        0,
        -0.27815008163452148,
        0
      ],
      "type": "VEC3"
    },
    {
      "bufferView": 2,
      "byteOffset": 423492,
      "componentType": 5126,
      "count": 6099,
      "max": [
        1.7946913242340088,
        1.0240234136581421,
        0.67118459939956665
      ],
      "min": [
        -1.3150293827056885,
        -0.53436517715454102,
        -1.8407639265060425
      ],
      "type": "VEC3"
    },
    {
      "bufferView": 2,
      "byteOffset": 496680,
      "componentType": 5126,
      "count": 6099,
      "max": [
        0,
        1.8243439197540283,
        1.6302945613861084
      ],
      "min": [
        0,
        0,
        0
      ],
      "type": "VEC3"
    },
    {
      "bufferView": 2,
      "byteOffset": 569868,
      "componentType": 5126,
      "count": 6099,
      "max": [
        0.52930933237075806,
        0.20816493034362793,
        0.44196796417236328
      ],
      "min": [
        -0.48046049475669861,
        -0.31540030241012573,
        -0.90885257720947266
      ],
      "type": "VEC3"
    },
    {
      "bufferView": 2,
      "byteOffset": 643056,
      "componentType": 5126,
      "count": 6099,
      "max": [
        0,
        0,
        0
      ],
      "min": [
        0,
        -1.1639163494110107,
        0
      ],
      "type": "VEC3"
    },
    {
      "bufferView": 2,
      "byteOffset": 716244,
      "componentType": 5126,
      "count": 6099,
      "max": [
        0.63287842273712158,
        0.62830209732055664,
        0.67283135652542114
      ],
      "min": [
        -0.72883135080337524,
        -0.39008021354675293,
        -0.68562185764312744
      ],
      "type": "VEC3"
    },
    {
      "bufferView": 0,
      "byteOffset": 43104,
      "componentType": 5125,
      "count": 19521,
      "max": [
        6098
      ],
      "min": [
        0
      ],
      "type": "SCALAR"
    },
    {
      "bufferView": 4,
      "componentType": 5126,
      "count": 21,
      "max": [
        0.83333331346511841
      ],
      "min": [
        0
      ],
      "type": "SCALAR"
    },
    {
      "bufferView": 4,
      "byteOffset": 84,
      "componentType": 5126,
      "count": 84,
      "max": [
        1
      ],
      "min": [
        0
      ],
      "type": "SCALAR"
    },
    {
      "bufferView": 4,
      "byteOffset": 420,
      "componentType": 5126,
      "count": 41,
      "max": [
        1.6666666269302368
      ],
      "min": [
        0
      ],
      "type": "SCALAR"
    },
    {
      "bufferView": 4,
      "byteOffset": 584,
      "componentType": 5126,
      "count": 164,
      "max": [
        1
      ],
      "min": [
        0
      ],
      "type": "SCALAR"
    },
    {
      "bufferView": 4,
      "byteOffset": 1240,
      "componentType": 5126,
      "count": 41,
      "max": [
        1.6666666269302368
      ],
      "min": [
        0
      ],
      "type": "SCALAR"
    },
    {
      "bufferView": 4,
      "byteOffset": 1404,
      "componentType": 5126,
      "count": 164,
      "max": [
        1
      ],
      "min": [
        0
      ],
      "type": "SCALAR"
    }
  ],
  "animations": [
    {
      "channels": [
        {
          "sampler": 0,
          "target": {
            "node": 13,
            "path": "weights"
          }
        }
      ],
      "name": "attack",
      "samplers": [
        {
          "input": 20,
          "interpolation": "LINEAR",
          "output": 21
        }
      ]
    },
    {
      "channels": [
        {
          "sampler": 0,
          "target": {
            "node": 13,
            "path": "weights"
          }
        }
      ],
      "name": "Idle",
      "samplers": [
        {
          "input": 22,
          "interpolation": "LINEAR",
          "output": 23
        }
      ]
    },
    {
      "channels": [
        {
          "sampler": 0,
          "target": {
            "node": 13,
            "path": "weights"
          }
        }
      ],
      "name": "walk",
      "samplers": [
        {
          "input": 24,
          "interpolation": "LINEAR",
          "output": 25
        }
      ]
    }
  ],
  "asset": {
    "extras": {
      "author": "jason.lp.davis (https://sketchfab.com/jason.lp.davis)",
      "license": "CC-BY-4.0 (http://creativecommons.org/licenses/by/4.0/)",
      "source": "https://sketchfab.com/3d-models/kang-the-simpsons-fan-art-8c788e53737940eb809fa32d101c9c7e",
      "title": "Kang - The Simpsons Fan Art"
    },
    "generator": "Sketchfab-9.55.1",
    "version": "2.0"
  },
  "bufferViews": [
    {
      "buffer": 0,
      "byteLength": 121188,
      "byteOffset": 0,
      "name": "floatBufferViews",
      "target": 34963
    },
    {
      "buffer": 0,
      "byteLength": 214352,
      "byteOffset": 121188,
      "byteStride": 8,
      "name": "floatBufferViews",
      "target": 34962
    },
    {
      "buffer": 0,
      "byteLength": 789432,
      "byteOffset": 335540,
      "byteStride": 12,
      "name": "floatBufferViews",
      "target": 34962
    },
    {
      "buffer": 0,
      "byteLength": 97584,
      "byteOffset": 1124972,
      "byteStride": 16,
      "name": "floatBufferViews",
      "target": 34962
    },
    {
      "buffer": 0,
      "byteLength": 2060,
      "byteOffset": 1222556,
      "name": "floatBufferViews"
    }
  ],
  "buffers": [
    {
      "byteLength": 1224616,
      "uri": "scene.bin"
    }
  ],
  "extensionsRequired": [
    "KHR_materials_pbrSpecularGlossiness"
  ],
  "extensionsUsed": [
    "KHR_materials_pbrSpecularGlossiness"
  ],
  "images": [
    {
      "uri": "textures/Material.002_diffuse.png"
    },
    {
      "uri": "textures/Material.002_specularGlossiness.png"
    },
    {
      "uri": "textures/Material.002_normal.png"
    }
  ],
  "materials": [
    {
      "alphaMode": "BLEND",
      "doubleSided": false,
      "extensions": {
        "KHR_materials_pbrSpecularGlossiness": {
          "diffuseFactor": [
            1,
            1,
            1,
            0.019950568192182112
          ],
          "glossinessFactor": 0.91924770017450097,
          "specularFactor": [
            0.050000000000000003,
            0.050000000000000003,
            0.050000000000000003
          ]
        }
      },
      "name": "Transparent_Glass"
    },
    {
      "doubleSided": true,
      "emissiveFactor": [
        0,
        0,
        0
      ],
      "extensions": {
        "KHR_materials_pbrSpecularGlossiness": {
          "diffuseFactor": [
            1,
            1,
            1,
            1
          ],
          "diffuseTexture": {
            "index": 0,
            "texCoord": 0
          },
          "glossinessFactor": 1,
          "specularFactor": [
            0.050000000000000003,
            0.050000000000000003,
            0.050000000000000003
          ],
          "specularGlossinessTexture": {
            "index": 1,
            "texCoord": 1
          }
        }
      },
      "name": "Material.002",
      "normalTexture": {
        "index": 2,
        "scale": 1,
        "texCoord": 2
      }
    }
  ],
  "meshes": [
    {
      "primitives": [
        {
          "attributes": {
            "NORMAL": 1,
            "POSITION": 0,
            "TEXCOORD_0": 2
          },
          "indices": 3,
          "material": 0,
          "mode": 4
        }
      ]
    },
    {
      "name": "mesh_1",
      "primitives": [
        {
          "attributes": {
            "NORMAL": 5,
            "POSITION": 4,
            "TANGENT": 6,
            "TEXCOORD_0": 7,
            "TEXCOORD_1": 8,
            "TEXCOORD_2": 9,
            "TEXCOORD_3": 10
          },
          "indices": 19,
          "material": 1,
          "mode": 4,
          "targets": [
            {
              "NORMAL": 12,
              "POSITION": 11
            },
            {
              "NORMAL": 14,
              "POSITION": 13
            },
            {
              "NORMAL": 16,
              "POSITION": 15
            },
            {
              "NORMAL": 18,
              "POSITION": 17
            }
          ]
        }
      ],
      "weights": [
        0,
        0,
        0,
        0
      ]
    }
  ],
  "nodes": [
    {
      "children": [
        1
      ],
      "name": "RootNode (gltf orientation matrix)",
      "rotation": [
        -0.70710678118654746,
        -0,
        -0,
        0.70710678118654757
      ]
    },
    {
      "children": [
        2
      ],
      "matrix": [
        0.86598461866378784,
        0,
        0,
        0,
        0,
        0.86598461866378784,
        0,
        0,
        0,
        0,
        0.86598461866378784,
        0,
        0,
        0,
        0,
        1
      ],
      "name": "RootNode (model correction matrix)"
    },
    {
      "children": [
        3
      ],
      "name": "root"
    },
    {
      "children": [
        4
      ],
      "matrix": [
        1,
        0,
        0,
        0,
        0,
        2.2204460492503131e-16,
        1,
        0,
        0,
        -1,
        2.2204460492503131e-16,
        0,
        0,
        0,
        0,
        1
      ],
      "name": "GLTF_SceneRootNode"
    },
    {
      "children": [
        5
      ],
      "matrix": [
        1,
        0,
        -0,
        0,
        -0,
        0,
        -1,
        0,
        0,
        1,
        0,
        0,
        0,
        0,
        0,
        1
      ],
      "name": "RootNode (gltf orientation matrix)_7"
    },
    {
      "children": [
        6
      ],
      "matrix": [
        0.43879112601280212,
        0,
        0,
        0,
        0,
        0.43879112601280212,
        0,
        0,
        0,
        0,
        0.43879112601280212,
        0,
        0,
        0,
        0,
        1
      ],
      "name": "RootNode (model correction matrix)_6"
    },
    {
      "children": [
        7
      ],
      "name": "root_5"
    },
    {
      "children": [
        8,
        11
      ],
      "matrix": [
        1,
        0,
        0,
        0,
        0,
        0,
        1,
        0,
        0,
        -1,
        0,
        0,
        0,
        0,
        0,
        1
      ],
      "name": "GLTF_SceneRootNode_4"
    },
    {
      "children": [
        9
      ],
      "matrix": [
        1,
        0,
        0,
        0,
        0,
        1,
        0,
        0,
        0,
        0,
        1,
        0,
        0,
        -0.153581902384758,
        0,
        1
      ],
      "name": "Cube.001_0_1"
    },
    {
      "children": [
        10
      ],
      "name": "Mesh_0_0"
    },
    {
      "mesh": 0,
      "name": ""
    },
    {
      "children": [
        12
      ],
      "name": "new_1_3"
    },
    {
      "children": [
        13
      ],
      "name": "Mesh_1_2"
    },
    {
      "mesh": 1,
      "name": "mesh_1"
    }
  ],
  "samplers": [
    {
      "magFilter": 9729,
      "minFilter": 9987,
      "wrapS": 10497,
      "wrapT": 10497
    }
  ],
  "scene": 0,
  "scenes": [
    {
      "name": "OSG_Scene",
      "nodes": [
        0
      ]
    }
  ],
  "textures": [
    {
      "sampler": 0,
      "source": 0
    },
    {
      "sampler": 0,
      "source": 1
    },
    {
      "sampler": 0,
      "source": 2
    }
  ]
}

